# xmcd
#
# Track frame offsets: 
#        150
#        25575
#        40832
#        54922
#        76812
#        93585
#        104322
#        122292
#        138475
#        157857
#        170957
#        190962
#
# Disc length: 2810 seconds
#
# Revision: 0
# Processed by: cddbd v1.5.2PL0 Copyright (c) Steve Scherf et al.
# Submitted via: ExactAudioCopy v0.95b3
#
DISCID=8e0af80c
DTITLE=SouthWEST  - Eye of the Storm
DYEAR=1997
DGENRE=Country
TTITLE0=Eye of the Storm
TTITLE1=Sex on the Train
TTITLE2=Dirty Old Country Roads
TTITLE3=Baby Blue
TTITLE4=Sailin
TTITLE5=Spruce Creek Song
TTITLE6=Big Lingering Love
TTITLE7=Don't Call Me Late for Your Lovin
TTITLE8=Long Road Rollin
TTITLE9=Wintertime Friends
TTITLE10=I'll Be Alright
TTITLE11=Annie
EXTD=
EXTT0=
EXTT1=
EXTT2=
EXTT3=
EXTT4=
EXTT5=
EXTT6=
EXTT7=
EXTT8=
EXTT9=
EXTT10=
EXTT11=
PLAYORDER=
